<?xml version="1.0" encoding="utf-8" standalone="no"?>
<!DOCTYPE svg PUBLIC "-//W3C//DTD SVG 1.1//EN"
  "http://www.w3.org/Graphics/SVG/1.1/DTD/svg11.dtd">
<svg xmlns:xlink="http://www.w3.org/1999/xlink" width="460.8pt" height="345.6pt" viewBox="0 0 460.8 345.6" xmlns="http://www.w3.org/2000/svg" version="1.1">
 <metadata>
  <rdf:RDF xmlns:dc="http://purl.org/dc/elements/1.1/" xmlns:cc="http://creativecommons.org/ns#" xmlns:rdf="http://www.w3.org/1999/02/22-rdf-syntax-ns#">
   <cc:Work>
    <dc:type rdf:resource="http://purl.org/dc/dcmitype/StillImage"/>
    <dc:date>2023-12-23T16:37:44.082588</dc:date>
    <dc:format>image/svg+xml</dc:format>
    <dc:creator>
     <cc:Agent>
      <dc:title>Matplotlib v3.7.1, https://matplotlib.org/</dc:title>
     </cc:Agent>
    </dc:creator>
   </cc:Work>
  </rdf:RDF>
 </metadata>
 <defs>
  <style type="text/css">*{stroke-linejoin: round; stroke-linecap: butt}</style>
 </defs>
 <g id="figure_1">
  <g id="patch_1">
   <path d="M 0 345.6 
L 460.8 345.6 
L 460.8 0 
L 0 0 
z
" style="fill: #ffffff"/>
  </g>
  <g id="axes_1">
   <g id="patch_2">
    <path d="M 57.6 307.584 
L 414.72 307.584 
L 414.72 41.472 
L 57.6 41.472 
z
" style="fill: #ffffff"/>
   </g>
   <g id="matplotlib.axis_1">
    <g id="xtick_1">
     <g id="line2d_1">
      <defs>
       <path id="m4006f9fd77" d="M 0 0 
L 0 3.5 
" style="stroke: #000000; stroke-width: 0.8"/>
      </defs>
      <g>
       <use xlink:href="#m4006f9fd77" x="103.346777" y="307.584" style="stroke: #000000; stroke-width: 0.8"/>
      </g>
     </g>
     <g id="text_1">
      <!-- −25 -->
      <g transform="translate(92.794433 322.182437) scale(0.1 -0.1)">
       <defs>
        <path id="DejaVuSans-2212" d="M 678 2272 
L 4684 2272 
L 4684 1741 
L 678 1741 
L 678 2272 
z
" transform="scale(0.015625)"/>
        <path id="DejaVuSans-32" d="M 1228 531 
L 3431 531 
L 3431 0 
L 469 0 
L 469 531 
Q 828 903 1448 1529 
Q 2069 2156 2228 2338 
Q 2531 2678 2651 2914 
Q 2772 3150 2772 3378 
Q 2772 3750 2511 3984 
Q 2250 4219 1831 4219 
Q 1534 4219 1204 4116 
Q 875 4013 500 3803 
L 500 4441 
Q 881 4594 1212 4672 
Q 1544 4750 1819 4750 
Q 2544 4750 2975 4387 
Q 3406 4025 3406 3419 
Q 3406 3131 3298 2873 
Q 3191 2616 2906 2266 
Q 2828 2175 2409 1742 
Q 1991 1309 1228 531 
z
" transform="scale(0.015625)"/>
        <path id="DejaVuSans-35" d="M 691 4666 
L 3169 4666 
L 3169 4134 
L 1269 4134 
L 1269 2991 
Q 1406 3038 1543 3061 
Q 1681 3084 1819 3084 
Q 2600 3084 3056 2656 
Q 3513 2228 3513 1497 
Q 3513 744 3044 326 
Q 2575 -91 1722 -91 
Q 1428 -91 1123 -41 
Q 819 9 494 109 
L 494 744 
Q 775 591 1075 516 
Q 1375 441 1709 441 
Q 2250 441 2565 725 
Q 2881 1009 2881 1497 
Q 2881 1984 2565 2268 
Q 2250 2553 1709 2553 
Q 1456 2553 1204 2497 
Q 953 2441 691 2322 
L 691 4666 
z
" transform="scale(0.015625)"/>
       </defs>
       <use xlink:href="#DejaVuSans-2212"/>
       <use xlink:href="#DejaVuSans-32" x="83.789062"/>
       <use xlink:href="#DejaVuSans-35" x="147.412109"/>
      </g>
     </g>
    </g>
    <g id="xtick_2">
     <g id="line2d_2">
      <g>
       <use xlink:href="#m4006f9fd77" x="152.53686" y="307.584" style="stroke: #000000; stroke-width: 0.8"/>
      </g>
     </g>
     <g id="text_2">
      <!-- 0 -->
      <g transform="translate(149.35561 322.182437) scale(0.1 -0.1)">
       <defs>
        <path id="DejaVuSans-30" d="M 2034 4250 
Q 1547 4250 1301 3770 
Q 1056 3291 1056 2328 
Q 1056 1369 1301 889 
Q 1547 409 2034 409 
Q 2525 409 2770 889 
Q 3016 1369 3016 2328 
Q 3016 3291 2770 3770 
Q 2525 4250 2034 4250 
z
M 2034 4750 
Q 2819 4750 3233 4129 
Q 3647 3509 3647 2328 
Q 3647 1150 3233 529 
Q 2819 -91 2034 -91 
Q 1250 -91 836 529 
Q 422 1150 422 2328 
Q 422 3509 836 4129 
Q 1250 4750 2034 4750 
z
" transform="scale(0.015625)"/>
       </defs>
       <use xlink:href="#DejaVuSans-30"/>
      </g>
     </g>
    </g>
    <g id="xtick_3">
     <g id="line2d_3">
      <g>
       <use xlink:href="#m4006f9fd77" x="201.726942" y="307.584" style="stroke: #000000; stroke-width: 0.8"/>
      </g>
     </g>
     <g id="text_3">
      <!-- 25 -->
      <g transform="translate(195.364442 322.182437) scale(0.1 -0.1)">
       <use xlink:href="#DejaVuSans-32"/>
       <use xlink:href="#DejaVuSans-35" x="63.623047"/>
      </g>
     </g>
    </g>
    <g id="xtick_4">
     <g id="line2d_4">
      <g>
       <use xlink:href="#m4006f9fd77" x="250.917025" y="307.584" style="stroke: #000000; stroke-width: 0.8"/>
      </g>
     </g>
     <g id="text_4">
      <!-- 50 -->
      <g transform="translate(244.554525 322.182437) scale(0.1 -0.1)">
       <use xlink:href="#DejaVuSans-35"/>
       <use xlink:href="#DejaVuSans-30" x="63.623047"/>
      </g>
     </g>
    </g>
    <g id="xtick_5">
     <g id="line2d_5">
      <g>
       <use xlink:href="#m4006f9fd77" x="300.107107" y="307.584" style="stroke: #000000; stroke-width: 0.8"/>
      </g>
     </g>
     <g id="text_5">
      <!-- 75 -->
      <g transform="translate(293.744607 322.182437) scale(0.1 -0.1)">
       <defs>
        <path id="DejaVuSans-37" d="M 525 4666 
L 3525 4666 
L 3525 4397 
L 1831 0 
L 1172 0 
L 2766 4134 
L 525 4134 
L 525 4666 
z
" transform="scale(0.015625)"/>
       </defs>
       <use xlink:href="#DejaVuSans-37"/>
       <use xlink:href="#DejaVuSans-35" x="63.623047"/>
      </g>
     </g>
    </g>
    <g id="xtick_6">
     <g id="line2d_6">
      <g>
       <use xlink:href="#m4006f9fd77" x="349.29719" y="307.584" style="stroke: #000000; stroke-width: 0.8"/>
      </g>
     </g>
     <g id="text_6">
      <!-- 100 -->
      <g transform="translate(339.75344 322.182437) scale(0.1 -0.1)">
       <defs>
        <path id="DejaVuSans-31" d="M 794 531 
L 1825 531 
L 1825 4091 
L 703 3866 
L 703 4441 
L 1819 4666 
L 2450 4666 
L 2450 531 
L 3481 531 
L 3481 0 
L 794 0 
L 794 531 
z
" transform="scale(0.015625)"/>
       </defs>
       <use xlink:href="#DejaVuSans-31"/>
       <use xlink:href="#DejaVuSans-30" x="63.623047"/>
       <use xlink:href="#DejaVuSans-30" x="127.246094"/>
      </g>
     </g>
    </g>
    <g id="xtick_7">
     <g id="line2d_7">
      <g>
       <use xlink:href="#m4006f9fd77" x="398.487273" y="307.584" style="stroke: #000000; stroke-width: 0.8"/>
      </g>
     </g>
     <g id="text_7">
      <!-- 125 -->
      <g transform="translate(388.943523 322.182437) scale(0.1 -0.1)">
       <use xlink:href="#DejaVuSans-31"/>
       <use xlink:href="#DejaVuSans-32" x="63.623047"/>
       <use xlink:href="#DejaVuSans-35" x="127.246094"/>
      </g>
     </g>
    </g>
    <g id="text_8">
     <!-- Temperature [C] -->
     <g transform="translate(195.508437 335.860562) scale(0.1 -0.1)">
      <defs>
       <path id="DejaVuSans-54" d="M -19 4666 
L 3928 4666 
L 3928 4134 
L 2272 4134 
L 2272 0 
L 1638 0 
L 1638 4134 
L -19 4134 
L -19 4666 
z
" transform="scale(0.015625)"/>
       <path id="DejaVuSans-65" d="M 3597 1894 
L 3597 1613 
L 953 1613 
Q 991 1019 1311 708 
Q 1631 397 2203 397 
Q 2534 397 2845 478 
Q 3156 559 3463 722 
L 3463 178 
Q 3153 47 2828 -22 
Q 2503 -91 2169 -91 
Q 1331 -91 842 396 
Q 353 884 353 1716 
Q 353 2575 817 3079 
Q 1281 3584 2069 3584 
Q 2775 3584 3186 3129 
Q 3597 2675 3597 1894 
z
M 3022 2063 
Q 3016 2534 2758 2815 
Q 2500 3097 2075 3097 
Q 1594 3097 1305 2825 
Q 1016 2553 972 2059 
L 3022 2063 
z
" transform="scale(0.015625)"/>
       <path id="DejaVuSans-6d" d="M 3328 2828 
Q 3544 3216 3844 3400 
Q 4144 3584 4550 3584 
Q 5097 3584 5394 3201 
Q 5691 2819 5691 2113 
L 5691 0 
L 5113 0 
L 5113 2094 
Q 5113 2597 4934 2840 
Q 4756 3084 4391 3084 
Q 3944 3084 3684 2787 
Q 3425 2491 3425 1978 
L 3425 0 
L 2847 0 
L 2847 2094 
Q 2847 2600 2669 2842 
Q 2491 3084 2119 3084 
Q 1678 3084 1418 2786 
Q 1159 2488 1159 1978 
L 1159 0 
L 581 0 
L 581 3500 
L 1159 3500 
L 1159 2956 
Q 1356 3278 1631 3431 
Q 1906 3584 2284 3584 
Q 2666 3584 2933 3390 
Q 3200 3197 3328 2828 
z
" transform="scale(0.015625)"/>
       <path id="DejaVuSans-70" d="M 1159 525 
L 1159 -1331 
L 581 -1331 
L 581 3500 
L 1159 3500 
L 1159 2969 
Q 1341 3281 1617 3432 
Q 1894 3584 2278 3584 
Q 2916 3584 3314 3078 
Q 3713 2572 3713 1747 
Q 3713 922 3314 415 
Q 2916 -91 2278 -91 
Q 1894 -91 1617 61 
Q 1341 213 1159 525 
z
M 3116 1747 
Q 3116 2381 2855 2742 
Q 2594 3103 2138 3103 
Q 1681 3103 1420 2742 
Q 1159 2381 1159 1747 
Q 1159 1113 1420 752 
Q 1681 391 2138 391 
Q 2594 391 2855 752 
Q 3116 1113 3116 1747 
z
" transform="scale(0.015625)"/>
       <path id="DejaVuSans-72" d="M 2631 2963 
Q 2534 3019 2420 3045 
Q 2306 3072 2169 3072 
Q 1681 3072 1420 2755 
Q 1159 2438 1159 1844 
L 1159 0 
L 581 0 
L 581 3500 
L 1159 3500 
L 1159 2956 
Q 1341 3275 1631 3429 
Q 1922 3584 2338 3584 
Q 2397 3584 2469 3576 
Q 2541 3569 2628 3553 
L 2631 2963 
z
" transform="scale(0.015625)"/>
       <path id="DejaVuSans-61" d="M 2194 1759 
Q 1497 1759 1228 1600 
Q 959 1441 959 1056 
Q 959 750 1161 570 
Q 1363 391 1709 391 
Q 2188 391 2477 730 
Q 2766 1069 2766 1631 
L 2766 1759 
L 2194 1759 
z
M 3341 1997 
L 3341 0 
L 2766 0 
L 2766 531 
Q 2569 213 2275 61 
Q 1981 -91 1556 -91 
Q 1019 -91 701 211 
Q 384 513 384 1019 
Q 384 1609 779 1909 
Q 1175 2209 1959 2209 
L 2766 2209 
L 2766 2266 
Q 2766 2663 2505 2880 
Q 2244 3097 1772 3097 
Q 1472 3097 1187 3025 
Q 903 2953 641 2809 
L 641 3341 
Q 956 3463 1253 3523 
Q 1550 3584 1831 3584 
Q 2591 3584 2966 3190 
Q 3341 2797 3341 1997 
z
" transform="scale(0.015625)"/>
       <path id="DejaVuSans-74" d="M 1172 4494 
L 1172 3500 
L 2356 3500 
L 2356 3053 
L 1172 3053 
L 1172 1153 
Q 1172 725 1289 603 
Q 1406 481 1766 481 
L 2356 481 
L 2356 0 
L 1766 0 
Q 1100 0 847 248 
Q 594 497 594 1153 
L 594 3053 
L 172 3053 
L 172 3500 
L 594 3500 
L 594 4494 
L 1172 4494 
z
" transform="scale(0.015625)"/>
       <path id="DejaVuSans-75" d="M 544 1381 
L 544 3500 
L 1119 3500 
L 1119 1403 
Q 1119 906 1312 657 
Q 1506 409 1894 409 
Q 2359 409 2629 706 
Q 2900 1003 2900 1516 
L 2900 3500 
L 3475 3500 
L 3475 0 
L 2900 0 
L 2900 538 
Q 2691 219 2414 64 
Q 2138 -91 1772 -91 
Q 1169 -91 856 284 
Q 544 659 544 1381 
z
M 1991 3584 
L 1991 3584 
z
" transform="scale(0.015625)"/>
       <path id="DejaVuSans-20" transform="scale(0.015625)"/>
       <path id="DejaVuSans-5b" d="M 550 4863 
L 1875 4863 
L 1875 4416 
L 1125 4416 
L 1125 -397 
L 1875 -397 
L 1875 -844 
L 550 -844 
L 550 4863 
z
" transform="scale(0.015625)"/>
       <path id="DejaVuSans-43" d="M 4122 4306 
L 4122 3641 
Q 3803 3938 3442 4084 
Q 3081 4231 2675 4231 
Q 1875 4231 1450 3742 
Q 1025 3253 1025 2328 
Q 1025 1406 1450 917 
Q 1875 428 2675 428 
Q 3081 428 3442 575 
Q 3803 722 4122 1019 
L 4122 359 
Q 3791 134 3420 21 
Q 3050 -91 2638 -91 
Q 1578 -91 968 557 
Q 359 1206 359 2328 
Q 359 3453 968 4101 
Q 1578 4750 2638 4750 
Q 3056 4750 3426 4639 
Q 3797 4528 4122 4306 
z
" transform="scale(0.015625)"/>
       <path id="DejaVuSans-5d" d="M 1947 4863 
L 1947 -844 
L 622 -844 
L 622 -397 
L 1369 -397 
L 1369 4416 
L 622 4416 
L 622 4863 
L 1947 4863 
z
" transform="scale(0.015625)"/>
      </defs>
      <use xlink:href="#DejaVuSans-54"/>
      <use xlink:href="#DejaVuSans-65" x="44.083984"/>
      <use xlink:href="#DejaVuSans-6d" x="105.607422"/>
      <use xlink:href="#DejaVuSans-70" x="203.019531"/>
      <use xlink:href="#DejaVuSans-65" x="266.496094"/>
      <use xlink:href="#DejaVuSans-72" x="328.019531"/>
      <use xlink:href="#DejaVuSans-61" x="369.132812"/>
      <use xlink:href="#DejaVuSans-74" x="430.412109"/>
      <use xlink:href="#DejaVuSans-75" x="469.621094"/>
      <use xlink:href="#DejaVuSans-72" x="533"/>
      <use xlink:href="#DejaVuSans-65" x="571.863281"/>
      <use xlink:href="#DejaVuSans-20" x="633.386719"/>
      <use xlink:href="#DejaVuSans-5b" x="665.173828"/>
      <use xlink:href="#DejaVuSans-43" x="704.1875"/>
      <use xlink:href="#DejaVuSans-5d" x="774.011719"/>
     </g>
    </g>
   </g>
   <g id="matplotlib.axis_2">
    <g id="ytick_1">
     <g id="line2d_8">
      <defs>
       <path id="mf82398d945" d="M 0 0 
L -3.5 0 
" style="stroke: #000000; stroke-width: 0.8"/>
      </defs>
      <g>
       <use xlink:href="#mf82398d945" x="57.6" y="278.37247" style="stroke: #000000; stroke-width: 0.8"/>
      </g>
     </g>
     <g id="text_9">
      <!-- −100 -->
      <g transform="translate(23.132812 282.171689) scale(0.1 -0.1)">
       <use xlink:href="#DejaVuSans-2212"/>
       <use xlink:href="#DejaVuSans-31" x="83.789062"/>
       <use xlink:href="#DejaVuSans-30" x="147.412109"/>
       <use xlink:href="#DejaVuSans-30" x="211.035156"/>
      </g>
     </g>
    </g>
    <g id="ytick_2">
     <g id="line2d_9">
      <g>
       <use xlink:href="#mf82398d945" x="57.6" y="229.405122" style="stroke: #000000; stroke-width: 0.8"/>
      </g>
     </g>
     <g id="text_10">
      <!-- 0 -->
      <g transform="translate(44.2375 233.204341) scale(0.1 -0.1)">
       <use xlink:href="#DejaVuSans-30"/>
      </g>
     </g>
    </g>
    <g id="ytick_3">
     <g id="line2d_10">
      <g>
       <use xlink:href="#mf82398d945" x="57.6" y="180.437774" style="stroke: #000000; stroke-width: 0.8"/>
      </g>
     </g>
     <g id="text_11">
      <!-- 100 -->
      <g transform="translate(31.5125 184.236993) scale(0.1 -0.1)">
       <use xlink:href="#DejaVuSans-31"/>
       <use xlink:href="#DejaVuSans-30" x="63.623047"/>
       <use xlink:href="#DejaVuSans-30" x="127.246094"/>
      </g>
     </g>
    </g>
    <g id="ytick_4">
     <g id="line2d_11">
      <g>
       <use xlink:href="#mf82398d945" x="57.6" y="131.470426" style="stroke: #000000; stroke-width: 0.8"/>
      </g>
     </g>
     <g id="text_12">
      <!-- 200 -->
      <g transform="translate(31.5125 135.269645) scale(0.1 -0.1)">
       <use xlink:href="#DejaVuSans-32"/>
       <use xlink:href="#DejaVuSans-30" x="63.623047"/>
       <use xlink:href="#DejaVuSans-30" x="127.246094"/>
      </g>
     </g>
    </g>
    <g id="ytick_5">
     <g id="line2d_12">
      <g>
       <use xlink:href="#mf82398d945" x="57.6" y="82.503078" style="stroke: #000000; stroke-width: 0.8"/>
      </g>
     </g>
     <g id="text_13">
      <!-- 300 -->
      <g transform="translate(31.5125 86.302297) scale(0.1 -0.1)">
       <defs>
        <path id="DejaVuSans-33" d="M 2597 2516 
Q 3050 2419 3304 2112 
Q 3559 1806 3559 1356 
Q 3559 666 3084 287 
Q 2609 -91 1734 -91 
Q 1441 -91 1130 -33 
Q 819 25 488 141 
L 488 750 
Q 750 597 1062 519 
Q 1375 441 1716 441 
Q 2309 441 2620 675 
Q 2931 909 2931 1356 
Q 2931 1769 2642 2001 
Q 2353 2234 1838 2234 
L 1294 2234 
L 1294 2753 
L 1863 2753 
Q 2328 2753 2575 2939 
Q 2822 3125 2822 3475 
Q 2822 3834 2567 4026 
Q 2313 4219 1838 4219 
Q 1578 4219 1281 4162 
Q 984 4106 628 3988 
L 628 4550 
Q 988 4650 1302 4700 
Q 1616 4750 1894 4750 
Q 2613 4750 3031 4423 
Q 3450 4097 3450 3541 
Q 3450 3153 3228 2886 
Q 3006 2619 2597 2516 
z
" transform="scale(0.015625)"/>
       </defs>
       <use xlink:href="#DejaVuSans-33"/>
       <use xlink:href="#DejaVuSans-30" x="63.623047"/>
       <use xlink:href="#DejaVuSans-30" x="127.246094"/>
      </g>
     </g>
    </g>
    <g id="text_14">
     <!-- Output -->
     <g transform="translate(17.053125 191.895969) rotate(-90) scale(0.1 -0.1)">
      <defs>
       <path id="DejaVuSans-4f" d="M 2522 4238 
Q 1834 4238 1429 3725 
Q 1025 3213 1025 2328 
Q 1025 1447 1429 934 
Q 1834 422 2522 422 
Q 3209 422 3611 934 
Q 4013 1447 4013 2328 
Q 4013 3213 3611 3725 
Q 3209 4238 2522 4238 
z
M 2522 4750 
Q 3503 4750 4090 4092 
Q 4678 3434 4678 2328 
Q 4678 1225 4090 567 
Q 3503 -91 2522 -91 
Q 1538 -91 948 565 
Q 359 1222 359 2328 
Q 359 3434 948 4092 
Q 1538 4750 2522 4750 
z
" transform="scale(0.015625)"/>
      </defs>
      <use xlink:href="#DejaVuSans-4f"/>
      <use xlink:href="#DejaVuSans-75" x="78.710938"/>
      <use xlink:href="#DejaVuSans-74" x="142.089844"/>
      <use xlink:href="#DejaVuSans-70" x="181.298828"/>
      <use xlink:href="#DejaVuSans-75" x="244.775391"/>
      <use xlink:href="#DejaVuSans-74" x="308.154297"/>
     </g>
    </g>
   </g>
   <g id="line2d_13">
    <path d="M 73.832727 148.74394 
L 113.184793 148.743196 
L 152.53686 186.417348 
L 191.888926 218.142632 
L 231.240992 243.919751 
L 309.945124 271.679128 
L 398.487273 275.644455 
" clip-path="url(#pb9b8c3b214)" style="fill: none; stroke: #1f77b4; stroke-width: 1.5; stroke-linecap: square"/>
   </g>
   <g id="line2d_14">
    <path d="M 73.832727 210.212732 
L 113.184793 218.144122 
L 152.53686 224.091536 
L 191.888926 218.142632 
L 231.240992 210.211617 
L 309.945124 168.573003 
L 398.487273 101.157769 
" clip-path="url(#pb9b8c3b214)" style="fill: none; stroke: #ff7f0e; stroke-width: 1.5; stroke-linecap: square"/>
   </g>
   <g id="line2d_15">
    <path d="M 73.832727 180.468896 
L 113.184793 212.194404 
L 152.53686 220.125247 
L 191.888926 218.142632 
L 231.240992 206.245988 
L 309.945124 156.675194 
L 398.487273 89.258821 
" clip-path="url(#pb9b8c3b214)" style="fill: none; stroke: #2ca02c; stroke-width: 1.5; stroke-linecap: square"/>
   </g>
   <g id="line2d_16">
    <path d="M 73.832727 218.142721 
L 113.184793 218.141841 
L 152.53686 218.142122 
L 191.888926 218.142632 
L 231.240992 230.040019 
L 309.945124 277.630402 
L 398.487273 295.488 
" clip-path="url(#pb9b8c3b214)" style="fill: none; stroke: #d62728; stroke-width: 1.5; stroke-linecap: square"/>
   </g>
   <g id="line2d_17">
    <path d="M 73.832727 235.987332 
L 113.184793 230.038648 
L 152.53686 226.072804 
L 191.888926 218.142632 
L 231.240992 200.296524 
L 309.945124 170.553631 
L 398.487273 111.068758 
" clip-path="url(#pb9b8c3b214)" style="fill: none; stroke: #9467bd; stroke-width: 1.5; stroke-linecap: square"/>
   </g>
   <g id="line2d_18">
    <path d="M 73.832727 263.746062 
L 113.184793 263.744539 
L 152.53686 245.900845 
L 191.888926 218.142632 
L 231.240992 188.398461 
L 309.945124 122.964607 
L 398.487273 53.568 
" clip-path="url(#pb9b8c3b214)" style="fill: none; stroke: #8c564b; stroke-width: 1.5; stroke-linecap: square"/>
   </g>
   <g id="line2d_19">
    <path d="M 73.832727 253.834107 
L 113.184793 253.834135 
L 152.53686 245.902148 
L 191.888926 218.142632 
L 231.240992 188.399036 
L 309.945124 128.914969 
L 398.487273 61.498494 
" clip-path="url(#pb9b8c3b214)" style="fill: none; stroke: #e377c2; stroke-width: 1.5; stroke-linecap: square"/>
   </g>
   <g id="line2d_20">
    <path d="M 73.832727 234.005517 
L 113.184793 230.039879 
L 152.53686 224.091602 
L 191.888926 218.142632 
L 231.240992 212.193846 
L 309.945124 184.434874 
L 398.487273 132.888853 
" clip-path="url(#pb9b8c3b214)" style="fill: none; stroke: #7f7f7f; stroke-width: 1.5; stroke-linecap: square"/>
   </g>
   <g id="patch_3">
    <path d="M 57.6 307.584 
L 57.6 41.472 
" style="fill: none; stroke: #000000; stroke-width: 0.8; stroke-linejoin: miter; stroke-linecap: square"/>
   </g>
   <g id="patch_4">
    <path d="M 414.72 307.584 
L 414.72 41.472 
" style="fill: none; stroke: #000000; stroke-width: 0.8; stroke-linejoin: miter; stroke-linecap: square"/>
   </g>
   <g id="patch_5">
    <path d="M 57.6 307.584 
L 414.72 307.584 
" style="fill: none; stroke: #000000; stroke-width: 0.8; stroke-linejoin: miter; stroke-linecap: square"/>
   </g>
   <g id="patch_6">
    <path d="M 57.6 41.472 
L 414.72 41.472 
" style="fill: none; stroke: #000000; stroke-width: 0.8; stroke-linejoin: miter; stroke-linecap: square"/>
   </g>
   <g id="legend_1">
    <g id="patch_7">
     <path d="M 64.6 169.122 
L 281.725 169.122 
Q 283.725 169.122 283.725 167.122 
L 283.725 48.472 
Q 283.725 46.472 281.725 46.472 
L 64.6 46.472 
Q 62.6 46.472 62.6 48.472 
L 62.6 167.122 
Q 62.6 169.122 64.6 169.122 
z
" style="fill: #ffffff; opacity: 0.8; stroke: #cccccc; stroke-linejoin: miter"/>
    </g>
    <g id="line2d_21">
     <path d="M 66.6 54.570437 
L 76.6 54.570437 
L 86.6 54.570437 
" style="fill: none; stroke: #1f77b4; stroke-width: 1.5; stroke-linecap: square"/>
    </g>
    <g id="text_15">
     <!-- output_tran/tran_SchGtTtKssVl.yaml -->
     <g transform="translate(94.6 58.070437) scale(0.1 -0.1)">
      <defs>
       <path id="DejaVuSans-6f" d="M 1959 3097 
Q 1497 3097 1228 2736 
Q 959 2375 959 1747 
Q 959 1119 1226 758 
Q 1494 397 1959 397 
Q 2419 397 2687 759 
Q 2956 1122 2956 1747 
Q 2956 2369 2687 2733 
Q 2419 3097 1959 3097 
z
M 1959 3584 
Q 2709 3584 3137 3096 
Q 3566 2609 3566 1747 
Q 3566 888 3137 398 
Q 2709 -91 1959 -91 
Q 1206 -91 779 398 
Q 353 888 353 1747 
Q 353 2609 779 3096 
Q 1206 3584 1959 3584 
z
" transform="scale(0.015625)"/>
       <path id="DejaVuSans-5f" d="M 3263 -1063 
L 3263 -1509 
L -63 -1509 
L -63 -1063 
L 3263 -1063 
z
" transform="scale(0.015625)"/>
       <path id="DejaVuSans-6e" d="M 3513 2113 
L 3513 0 
L 2938 0 
L 2938 2094 
Q 2938 2591 2744 2837 
Q 2550 3084 2163 3084 
Q 1697 3084 1428 2787 
Q 1159 2491 1159 1978 
L 1159 0 
L 581 0 
L 581 3500 
L 1159 3500 
L 1159 2956 
Q 1366 3272 1645 3428 
Q 1925 3584 2291 3584 
Q 2894 3584 3203 3211 
Q 3513 2838 3513 2113 
z
" transform="scale(0.015625)"/>
       <path id="DejaVuSans-2f" d="M 1625 4666 
L 2156 4666 
L 531 -594 
L 0 -594 
L 1625 4666 
z
" transform="scale(0.015625)"/>
       <path id="DejaVuSans-53" d="M 3425 4513 
L 3425 3897 
Q 3066 4069 2747 4153 
Q 2428 4238 2131 4238 
Q 1616 4238 1336 4038 
Q 1056 3838 1056 3469 
Q 1056 3159 1242 3001 
Q 1428 2844 1947 2747 
L 2328 2669 
Q 3034 2534 3370 2195 
Q 3706 1856 3706 1288 
Q 3706 609 3251 259 
Q 2797 -91 1919 -91 
Q 1588 -91 1214 -16 
Q 841 59 441 206 
L 441 856 
Q 825 641 1194 531 
Q 1563 422 1919 422 
Q 2459 422 2753 634 
Q 3047 847 3047 1241 
Q 3047 1584 2836 1778 
Q 2625 1972 2144 2069 
L 1759 2144 
Q 1053 2284 737 2584 
Q 422 2884 422 3419 
Q 422 4038 858 4394 
Q 1294 4750 2059 4750 
Q 2388 4750 2728 4690 
Q 3069 4631 3425 4513 
z
" transform="scale(0.015625)"/>
       <path id="DejaVuSans-63" d="M 3122 3366 
L 3122 2828 
Q 2878 2963 2633 3030 
Q 2388 3097 2138 3097 
Q 1578 3097 1268 2742 
Q 959 2388 959 1747 
Q 959 1106 1268 751 
Q 1578 397 2138 397 
Q 2388 397 2633 464 
Q 2878 531 3122 666 
L 3122 134 
Q 2881 22 2623 -34 
Q 2366 -91 2075 -91 
Q 1284 -91 818 406 
Q 353 903 353 1747 
Q 353 2603 823 3093 
Q 1294 3584 2113 3584 
Q 2378 3584 2631 3529 
Q 2884 3475 3122 3366 
z
" transform="scale(0.015625)"/>
       <path id="DejaVuSans-68" d="M 3513 2113 
L 3513 0 
L 2938 0 
L 2938 2094 
Q 2938 2591 2744 2837 
Q 2550 3084 2163 3084 
Q 1697 3084 1428 2787 
Q 1159 2491 1159 1978 
L 1159 0 
L 581 0 
L 581 4863 
L 1159 4863 
L 1159 2956 
Q 1366 3272 1645 3428 
Q 1925 3584 2291 3584 
Q 2894 3584 3203 3211 
Q 3513 2838 3513 2113 
z
" transform="scale(0.015625)"/>
       <path id="DejaVuSans-47" d="M 3809 666 
L 3809 1919 
L 2778 1919 
L 2778 2438 
L 4434 2438 
L 4434 434 
Q 4069 175 3628 42 
Q 3188 -91 2688 -91 
Q 1594 -91 976 548 
Q 359 1188 359 2328 
Q 359 3472 976 4111 
Q 1594 4750 2688 4750 
Q 3144 4750 3555 4637 
Q 3966 4525 4313 4306 
L 4313 3634 
Q 3963 3931 3569 4081 
Q 3175 4231 2741 4231 
Q 1884 4231 1454 3753 
Q 1025 3275 1025 2328 
Q 1025 1384 1454 906 
Q 1884 428 2741 428 
Q 3075 428 3337 486 
Q 3600 544 3809 666 
z
" transform="scale(0.015625)"/>
       <path id="DejaVuSans-4b" d="M 628 4666 
L 1259 4666 
L 1259 2694 
L 3353 4666 
L 4166 4666 
L 1850 2491 
L 4331 0 
L 3500 0 
L 1259 2247 
L 1259 0 
L 628 0 
L 628 4666 
z
" transform="scale(0.015625)"/>
       <path id="DejaVuSans-73" d="M 2834 3397 
L 2834 2853 
Q 2591 2978 2328 3040 
Q 2066 3103 1784 3103 
Q 1356 3103 1142 2972 
Q 928 2841 928 2578 
Q 928 2378 1081 2264 
Q 1234 2150 1697 2047 
L 1894 2003 
Q 2506 1872 2764 1633 
Q 3022 1394 3022 966 
Q 3022 478 2636 193 
Q 2250 -91 1575 -91 
Q 1294 -91 989 -36 
Q 684 19 347 128 
L 347 722 
Q 666 556 975 473 
Q 1284 391 1588 391 
Q 1994 391 2212 530 
Q 2431 669 2431 922 
Q 2431 1156 2273 1281 
Q 2116 1406 1581 1522 
L 1381 1569 
Q 847 1681 609 1914 
Q 372 2147 372 2553 
Q 372 3047 722 3315 
Q 1072 3584 1716 3584 
Q 2034 3584 2315 3537 
Q 2597 3491 2834 3397 
z
" transform="scale(0.015625)"/>
       <path id="DejaVuSans-56" d="M 1831 0 
L 50 4666 
L 709 4666 
L 2188 738 
L 3669 4666 
L 4325 4666 
L 2547 0 
L 1831 0 
z
" transform="scale(0.015625)"/>
       <path id="DejaVuSans-6c" d="M 603 4863 
L 1178 4863 
L 1178 0 
L 603 0 
L 603 4863 
z
" transform="scale(0.015625)"/>
       <path id="DejaVuSans-2e" d="M 684 794 
L 1344 794 
L 1344 0 
L 684 0 
L 684 794 
z
" transform="scale(0.015625)"/>
       <path id="DejaVuSans-79" d="M 2059 -325 
Q 1816 -950 1584 -1140 
Q 1353 -1331 966 -1331 
L 506 -1331 
L 506 -850 
L 844 -850 
Q 1081 -850 1212 -737 
Q 1344 -625 1503 -206 
L 1606 56 
L 191 3500 
L 800 3500 
L 1894 763 
L 2988 3500 
L 3597 3500 
L 2059 -325 
z
" transform="scale(0.015625)"/>
      </defs>
      <use xlink:href="#DejaVuSans-6f"/>
      <use xlink:href="#DejaVuSans-75" x="61.181641"/>
      <use xlink:href="#DejaVuSans-74" x="124.560547"/>
      <use xlink:href="#DejaVuSans-70" x="163.769531"/>
      <use xlink:href="#DejaVuSans-75" x="227.246094"/>
      <use xlink:href="#DejaVuSans-74" x="290.625"/>
      <use xlink:href="#DejaVuSans-5f" x="329.833984"/>
      <use xlink:href="#DejaVuSans-74" x="379.833984"/>
      <use xlink:href="#DejaVuSans-72" x="419.042969"/>
      <use xlink:href="#DejaVuSans-61" x="460.15625"/>
      <use xlink:href="#DejaVuSans-6e" x="521.435547"/>
      <use xlink:href="#DejaVuSans-2f" x="584.814453"/>
      <use xlink:href="#DejaVuSans-74" x="618.505859"/>
      <use xlink:href="#DejaVuSans-72" x="657.714844"/>
      <use xlink:href="#DejaVuSans-61" x="698.828125"/>
      <use xlink:href="#DejaVuSans-6e" x="760.107422"/>
      <use xlink:href="#DejaVuSans-5f" x="823.486328"/>
      <use xlink:href="#DejaVuSans-53" x="873.486328"/>
      <use xlink:href="#DejaVuSans-63" x="936.962891"/>
      <use xlink:href="#DejaVuSans-68" x="991.943359"/>
      <use xlink:href="#DejaVuSans-47" x="1055.322266"/>
      <use xlink:href="#DejaVuSans-74" x="1132.8125"/>
      <use xlink:href="#DejaVuSans-54" x="1172.021484"/>
      <use xlink:href="#DejaVuSans-74" x="1233.105469"/>
      <use xlink:href="#DejaVuSans-4b" x="1272.314453"/>
      <use xlink:href="#DejaVuSans-73" x="1337.890625"/>
      <use xlink:href="#DejaVuSans-73" x="1389.990234"/>
      <use xlink:href="#DejaVuSans-56" x="1442.089844"/>
      <use xlink:href="#DejaVuSans-6c" x="1510.498047"/>
      <use xlink:href="#DejaVuSans-2e" x="1538.28125"/>
      <use xlink:href="#DejaVuSans-79" x="1570.068359"/>
      <use xlink:href="#DejaVuSans-61" x="1629.248047"/>
      <use xlink:href="#DejaVuSans-6d" x="1690.527344"/>
      <use xlink:href="#DejaVuSans-6c" x="1787.939453"/>
     </g>
    </g>
    <g id="line2d_22">
     <path d="M 66.6 69.526687 
L 76.6 69.526687 
L 86.6 69.526687 
" style="fill: none; stroke: #ff7f0e; stroke-width: 1.5; stroke-linecap: square"/>
    </g>
    <g id="text_16">
     <!-- output_tran/tran_SchGtTtKffVl.yaml -->
     <g transform="translate(94.6 73.026687) scale(0.1 -0.1)">
      <defs>
       <path id="DejaVuSans-66" d="M 2375 4863 
L 2375 4384 
L 1825 4384 
Q 1516 4384 1395 4259 
Q 1275 4134 1275 3809 
L 1275 3500 
L 2222 3500 
L 2222 3053 
L 1275 3053 
L 1275 0 
L 697 0 
L 697 3053 
L 147 3053 
L 147 3500 
L 697 3500 
L 697 3744 
Q 697 4328 969 4595 
Q 1241 4863 1831 4863 
L 2375 4863 
z
" transform="scale(0.015625)"/>
      </defs>
      <use xlink:href="#DejaVuSans-6f"/>
      <use xlink:href="#DejaVuSans-75" x="61.181641"/>
      <use xlink:href="#DejaVuSans-74" x="124.560547"/>
      <use xlink:href="#DejaVuSans-70" x="163.769531"/>
      <use xlink:href="#DejaVuSans-75" x="227.246094"/>
      <use xlink:href="#DejaVuSans-74" x="290.625"/>
      <use xlink:href="#DejaVuSans-5f" x="329.833984"/>
      <use xlink:href="#DejaVuSans-74" x="379.833984"/>
      <use xlink:href="#DejaVuSans-72" x="419.042969"/>
      <use xlink:href="#DejaVuSans-61" x="460.15625"/>
      <use xlink:href="#DejaVuSans-6e" x="521.435547"/>
      <use xlink:href="#DejaVuSans-2f" x="584.814453"/>
      <use xlink:href="#DejaVuSans-74" x="618.505859"/>
      <use xlink:href="#DejaVuSans-72" x="657.714844"/>
      <use xlink:href="#DejaVuSans-61" x="698.828125"/>
      <use xlink:href="#DejaVuSans-6e" x="760.107422"/>
      <use xlink:href="#DejaVuSans-5f" x="823.486328"/>
      <use xlink:href="#DejaVuSans-53" x="873.486328"/>
      <use xlink:href="#DejaVuSans-63" x="936.962891"/>
      <use xlink:href="#DejaVuSans-68" x="991.943359"/>
      <use xlink:href="#DejaVuSans-47" x="1055.322266"/>
      <use xlink:href="#DejaVuSans-74" x="1132.8125"/>
      <use xlink:href="#DejaVuSans-54" x="1172.021484"/>
      <use xlink:href="#DejaVuSans-74" x="1233.105469"/>
      <use xlink:href="#DejaVuSans-4b" x="1272.314453"/>
      <use xlink:href="#DejaVuSans-66" x="1337.890625"/>
      <use xlink:href="#DejaVuSans-66" x="1373.095703"/>
      <use xlink:href="#DejaVuSans-56" x="1408.300781"/>
      <use xlink:href="#DejaVuSans-6c" x="1476.708984"/>
      <use xlink:href="#DejaVuSans-2e" x="1504.492188"/>
      <use xlink:href="#DejaVuSans-79" x="1536.279297"/>
      <use xlink:href="#DejaVuSans-61" x="1595.458984"/>
      <use xlink:href="#DejaVuSans-6d" x="1656.738281"/>
      <use xlink:href="#DejaVuSans-6c" x="1754.150391"/>
     </g>
    </g>
    <g id="line2d_23">
     <path d="M 66.6 84.482937 
L 76.6 84.482937 
L 86.6 84.482937 
" style="fill: none; stroke: #2ca02c; stroke-width: 1.5; stroke-linecap: square"/>
    </g>
    <g id="text_17">
     <!-- output_tran/tran_SchGtTtKsfVl.yaml -->
     <g transform="translate(94.6 87.982937) scale(0.1 -0.1)">
      <use xlink:href="#DejaVuSans-6f"/>
      <use xlink:href="#DejaVuSans-75" x="61.181641"/>
      <use xlink:href="#DejaVuSans-74" x="124.560547"/>
      <use xlink:href="#DejaVuSans-70" x="163.769531"/>
      <use xlink:href="#DejaVuSans-75" x="227.246094"/>
      <use xlink:href="#DejaVuSans-74" x="290.625"/>
      <use xlink:href="#DejaVuSans-5f" x="329.833984"/>
      <use xlink:href="#DejaVuSans-74" x="379.833984"/>
      <use xlink:href="#DejaVuSans-72" x="419.042969"/>
      <use xlink:href="#DejaVuSans-61" x="460.15625"/>
      <use xlink:href="#DejaVuSans-6e" x="521.435547"/>
      <use xlink:href="#DejaVuSans-2f" x="584.814453"/>
      <use xlink:href="#DejaVuSans-74" x="618.505859"/>
      <use xlink:href="#DejaVuSans-72" x="657.714844"/>
      <use xlink:href="#DejaVuSans-61" x="698.828125"/>
      <use xlink:href="#DejaVuSans-6e" x="760.107422"/>
      <use xlink:href="#DejaVuSans-5f" x="823.486328"/>
      <use xlink:href="#DejaVuSans-53" x="873.486328"/>
      <use xlink:href="#DejaVuSans-63" x="936.962891"/>
      <use xlink:href="#DejaVuSans-68" x="991.943359"/>
      <use xlink:href="#DejaVuSans-47" x="1055.322266"/>
      <use xlink:href="#DejaVuSans-74" x="1132.8125"/>
      <use xlink:href="#DejaVuSans-54" x="1172.021484"/>
      <use xlink:href="#DejaVuSans-74" x="1233.105469"/>
      <use xlink:href="#DejaVuSans-4b" x="1272.314453"/>
      <use xlink:href="#DejaVuSans-73" x="1337.890625"/>
      <use xlink:href="#DejaVuSans-66" x="1389.990234"/>
      <use xlink:href="#DejaVuSans-56" x="1425.195312"/>
      <use xlink:href="#DejaVuSans-6c" x="1493.603516"/>
      <use xlink:href="#DejaVuSans-2e" x="1521.386719"/>
      <use xlink:href="#DejaVuSans-79" x="1553.173828"/>
      <use xlink:href="#DejaVuSans-61" x="1612.353516"/>
      <use xlink:href="#DejaVuSans-6d" x="1673.632812"/>
      <use xlink:href="#DejaVuSans-6c" x="1771.044922"/>
     </g>
    </g>
    <g id="line2d_24">
     <path d="M 66.6 99.439187 
L 76.6 99.439187 
L 86.6 99.439187 
" style="fill: none; stroke: #d62728; stroke-width: 1.5; stroke-linecap: square"/>
    </g>
    <g id="text_18">
     <!-- output_tran/tran_SchGtTtKfsVl.yaml -->
     <g transform="translate(94.6 102.939187) scale(0.1 -0.1)">
      <use xlink:href="#DejaVuSans-6f"/>
      <use xlink:href="#DejaVuSans-75" x="61.181641"/>
      <use xlink:href="#DejaVuSans-74" x="124.560547"/>
      <use xlink:href="#DejaVuSans-70" x="163.769531"/>
      <use xlink:href="#DejaVuSans-75" x="227.246094"/>
      <use xlink:href="#DejaVuSans-74" x="290.625"/>
      <use xlink:href="#DejaVuSans-5f" x="329.833984"/>
      <use xlink:href="#DejaVuSans-74" x="379.833984"/>
      <use xlink:href="#DejaVuSans-72" x="419.042969"/>
      <use xlink:href="#DejaVuSans-61" x="460.15625"/>
      <use xlink:href="#DejaVuSans-6e" x="521.435547"/>
      <use xlink:href="#DejaVuSans-2f" x="584.814453"/>
      <use xlink:href="#DejaVuSans-74" x="618.505859"/>
      <use xlink:href="#DejaVuSans-72" x="657.714844"/>
      <use xlink:href="#DejaVuSans-61" x="698.828125"/>
      <use xlink:href="#DejaVuSans-6e" x="760.107422"/>
      <use xlink:href="#DejaVuSans-5f" x="823.486328"/>
      <use xlink:href="#DejaVuSans-53" x="873.486328"/>
      <use xlink:href="#DejaVuSans-63" x="936.962891"/>
      <use xlink:href="#DejaVuSans-68" x="991.943359"/>
      <use xlink:href="#DejaVuSans-47" x="1055.322266"/>
      <use xlink:href="#DejaVuSans-74" x="1132.8125"/>
      <use xlink:href="#DejaVuSans-54" x="1172.021484"/>
      <use xlink:href="#DejaVuSans-74" x="1233.105469"/>
      <use xlink:href="#DejaVuSans-4b" x="1272.314453"/>
      <use xlink:href="#DejaVuSans-66" x="1337.890625"/>
      <use xlink:href="#DejaVuSans-73" x="1373.095703"/>
      <use xlink:href="#DejaVuSans-56" x="1425.195312"/>
      <use xlink:href="#DejaVuSans-6c" x="1493.603516"/>
      <use xlink:href="#DejaVuSans-2e" x="1521.386719"/>
      <use xlink:href="#DejaVuSans-79" x="1553.173828"/>
      <use xlink:href="#DejaVuSans-61" x="1612.353516"/>
      <use xlink:href="#DejaVuSans-6d" x="1673.632812"/>
      <use xlink:href="#DejaVuSans-6c" x="1771.044922"/>
     </g>
    </g>
    <g id="line2d_25">
     <path d="M 66.6 114.395437 
L 76.6 114.395437 
L 86.6 114.395437 
" style="fill: none; stroke: #9467bd; stroke-width: 1.5; stroke-linecap: square"/>
    </g>
    <g id="text_19">
     <!-- output_tran/tran_SchGtTtKssVh.yaml -->
     <g transform="translate(94.6 117.895437) scale(0.1 -0.1)">
      <use xlink:href="#DejaVuSans-6f"/>
      <use xlink:href="#DejaVuSans-75" x="61.181641"/>
      <use xlink:href="#DejaVuSans-74" x="124.560547"/>
      <use xlink:href="#DejaVuSans-70" x="163.769531"/>
      <use xlink:href="#DejaVuSans-75" x="227.246094"/>
      <use xlink:href="#DejaVuSans-74" x="290.625"/>
      <use xlink:href="#DejaVuSans-5f" x="329.833984"/>
      <use xlink:href="#DejaVuSans-74" x="379.833984"/>
      <use xlink:href="#DejaVuSans-72" x="419.042969"/>
      <use xlink:href="#DejaVuSans-61" x="460.15625"/>
      <use xlink:href="#DejaVuSans-6e" x="521.435547"/>
      <use xlink:href="#DejaVuSans-2f" x="584.814453"/>
      <use xlink:href="#DejaVuSans-74" x="618.505859"/>
      <use xlink:href="#DejaVuSans-72" x="657.714844"/>
      <use xlink:href="#DejaVuSans-61" x="698.828125"/>
      <use xlink:href="#DejaVuSans-6e" x="760.107422"/>
      <use xlink:href="#DejaVuSans-5f" x="823.486328"/>
      <use xlink:href="#DejaVuSans-53" x="873.486328"/>
      <use xlink:href="#DejaVuSans-63" x="936.962891"/>
      <use xlink:href="#DejaVuSans-68" x="991.943359"/>
      <use xlink:href="#DejaVuSans-47" x="1055.322266"/>
      <use xlink:href="#DejaVuSans-74" x="1132.8125"/>
      <use xlink:href="#DejaVuSans-54" x="1172.021484"/>
      <use xlink:href="#DejaVuSans-74" x="1233.105469"/>
      <use xlink:href="#DejaVuSans-4b" x="1272.314453"/>
      <use xlink:href="#DejaVuSans-73" x="1337.890625"/>
      <use xlink:href="#DejaVuSans-73" x="1389.990234"/>
      <use xlink:href="#DejaVuSans-56" x="1442.089844"/>
      <use xlink:href="#DejaVuSans-68" x="1510.498047"/>
      <use xlink:href="#DejaVuSans-2e" x="1573.876953"/>
      <use xlink:href="#DejaVuSans-79" x="1605.664062"/>
      <use xlink:href="#DejaVuSans-61" x="1664.84375"/>
      <use xlink:href="#DejaVuSans-6d" x="1726.123047"/>
      <use xlink:href="#DejaVuSans-6c" x="1823.535156"/>
     </g>
    </g>
    <g id="line2d_26">
     <path d="M 66.6 129.351687 
L 76.6 129.351687 
L 86.6 129.351687 
" style="fill: none; stroke: #8c564b; stroke-width: 1.5; stroke-linecap: square"/>
    </g>
    <g id="text_20">
     <!-- output_tran/tran_SchGtTtKffVh.yaml -->
     <g transform="translate(94.6 132.851687) scale(0.1 -0.1)">
      <use xlink:href="#DejaVuSans-6f"/>
      <use xlink:href="#DejaVuSans-75" x="61.181641"/>
      <use xlink:href="#DejaVuSans-74" x="124.560547"/>
      <use xlink:href="#DejaVuSans-70" x="163.769531"/>
      <use xlink:href="#DejaVuSans-75" x="227.246094"/>
      <use xlink:href="#DejaVuSans-74" x="290.625"/>
      <use xlink:href="#DejaVuSans-5f" x="329.833984"/>
      <use xlink:href="#DejaVuSans-74" x="379.833984"/>
      <use xlink:href="#DejaVuSans-72" x="419.042969"/>
      <use xlink:href="#DejaVuSans-61" x="460.15625"/>
      <use xlink:href="#DejaVuSans-6e" x="521.435547"/>
      <use xlink:href="#DejaVuSans-2f" x="584.814453"/>
      <use xlink:href="#DejaVuSans-74" x="618.505859"/>
      <use xlink:href="#DejaVuSans-72" x="657.714844"/>
      <use xlink:href="#DejaVuSans-61" x="698.828125"/>
      <use xlink:href="#DejaVuSans-6e" x="760.107422"/>
      <use xlink:href="#DejaVuSans-5f" x="823.486328"/>
      <use xlink:href="#DejaVuSans-53" x="873.486328"/>
      <use xlink:href="#DejaVuSans-63" x="936.962891"/>
      <use xlink:href="#DejaVuSans-68" x="991.943359"/>
      <use xlink:href="#DejaVuSans-47" x="1055.322266"/>
      <use xlink:href="#DejaVuSans-74" x="1132.8125"/>
      <use xlink:href="#DejaVuSans-54" x="1172.021484"/>
      <use xlink:href="#DejaVuSans-74" x="1233.105469"/>
      <use xlink:href="#DejaVuSans-4b" x="1272.314453"/>
      <use xlink:href="#DejaVuSans-66" x="1337.890625"/>
      <use xlink:href="#DejaVuSans-66" x="1373.095703"/>
      <use xlink:href="#DejaVuSans-56" x="1408.300781"/>
      <use xlink:href="#DejaVuSans-68" x="1476.708984"/>
      <use xlink:href="#DejaVuSans-2e" x="1540.087891"/>
      <use xlink:href="#DejaVuSans-79" x="1571.875"/>
      <use xlink:href="#DejaVuSans-61" x="1631.054688"/>
      <use xlink:href="#DejaVuSans-6d" x="1692.333984"/>
      <use xlink:href="#DejaVuSans-6c" x="1789.746094"/>
     </g>
    </g>
    <g id="line2d_27">
     <path d="M 66.6 144.307937 
L 76.6 144.307937 
L 86.6 144.307937 
" style="fill: none; stroke: #e377c2; stroke-width: 1.5; stroke-linecap: square"/>
    </g>
    <g id="text_21">
     <!-- output_tran/tran_SchGtTtKsfVh.yaml -->
     <g transform="translate(94.6 147.807937) scale(0.1 -0.1)">
      <use xlink:href="#DejaVuSans-6f"/>
      <use xlink:href="#DejaVuSans-75" x="61.181641"/>
      <use xlink:href="#DejaVuSans-74" x="124.560547"/>
      <use xlink:href="#DejaVuSans-70" x="163.769531"/>
      <use xlink:href="#DejaVuSans-75" x="227.246094"/>
      <use xlink:href="#DejaVuSans-74" x="290.625"/>
      <use xlink:href="#DejaVuSans-5f" x="329.833984"/>
      <use xlink:href="#DejaVuSans-74" x="379.833984"/>
      <use xlink:href="#DejaVuSans-72" x="419.042969"/>
      <use xlink:href="#DejaVuSans-61" x="460.15625"/>
      <use xlink:href="#DejaVuSans-6e" x="521.435547"/>
      <use xlink:href="#DejaVuSans-2f" x="584.814453"/>
      <use xlink:href="#DejaVuSans-74" x="618.505859"/>
      <use xlink:href="#DejaVuSans-72" x="657.714844"/>
      <use xlink:href="#DejaVuSans-61" x="698.828125"/>
      <use xlink:href="#DejaVuSans-6e" x="760.107422"/>
      <use xlink:href="#DejaVuSans-5f" x="823.486328"/>
      <use xlink:href="#DejaVuSans-53" x="873.486328"/>
      <use xlink:href="#DejaVuSans-63" x="936.962891"/>
      <use xlink:href="#DejaVuSans-68" x="991.943359"/>
      <use xlink:href="#DejaVuSans-47" x="1055.322266"/>
      <use xlink:href="#DejaVuSans-74" x="1132.8125"/>
      <use xlink:href="#DejaVuSans-54" x="1172.021484"/>
      <use xlink:href="#DejaVuSans-74" x="1233.105469"/>
      <use xlink:href="#DejaVuSans-4b" x="1272.314453"/>
      <use xlink:href="#DejaVuSans-73" x="1337.890625"/>
      <use xlink:href="#DejaVuSans-66" x="1389.990234"/>
      <use xlink:href="#DejaVuSans-56" x="1425.195312"/>
      <use xlink:href="#DejaVuSans-68" x="1493.603516"/>
      <use xlink:href="#DejaVuSans-2e" x="1556.982422"/>
      <use xlink:href="#DejaVuSans-79" x="1588.769531"/>
      <use xlink:href="#DejaVuSans-61" x="1647.949219"/>
      <use xlink:href="#DejaVuSans-6d" x="1709.228516"/>
      <use xlink:href="#DejaVuSans-6c" x="1806.640625"/>
     </g>
    </g>
    <g id="line2d_28">
     <path d="M 66.6 159.264187 
L 76.6 159.264187 
L 86.6 159.264187 
" style="fill: none; stroke: #7f7f7f; stroke-width: 1.5; stroke-linecap: square"/>
    </g>
    <g id="text_22">
     <!-- output_tran/tran_SchGtTtKfsVh.yaml -->
     <g transform="translate(94.6 162.764187) scale(0.1 -0.1)">
      <use xlink:href="#DejaVuSans-6f"/>
      <use xlink:href="#DejaVuSans-75" x="61.181641"/>
      <use xlink:href="#DejaVuSans-74" x="124.560547"/>
      <use xlink:href="#DejaVuSans-70" x="163.769531"/>
      <use xlink:href="#DejaVuSans-75" x="227.246094"/>
      <use xlink:href="#DejaVuSans-74" x="290.625"/>
      <use xlink:href="#DejaVuSans-5f" x="329.833984"/>
      <use xlink:href="#DejaVuSans-74" x="379.833984"/>
      <use xlink:href="#DejaVuSans-72" x="419.042969"/>
      <use xlink:href="#DejaVuSans-61" x="460.15625"/>
      <use xlink:href="#DejaVuSans-6e" x="521.435547"/>
      <use xlink:href="#DejaVuSans-2f" x="584.814453"/>
      <use xlink:href="#DejaVuSans-74" x="618.505859"/>
      <use xlink:href="#DejaVuSans-72" x="657.714844"/>
      <use xlink:href="#DejaVuSans-61" x="698.828125"/>
      <use xlink:href="#DejaVuSans-6e" x="760.107422"/>
      <use xlink:href="#DejaVuSans-5f" x="823.486328"/>
      <use xlink:href="#DejaVuSans-53" x="873.486328"/>
      <use xlink:href="#DejaVuSans-63" x="936.962891"/>
      <use xlink:href="#DejaVuSans-68" x="991.943359"/>
      <use xlink:href="#DejaVuSans-47" x="1055.322266"/>
      <use xlink:href="#DejaVuSans-74" x="1132.8125"/>
      <use xlink:href="#DejaVuSans-54" x="1172.021484"/>
      <use xlink:href="#DejaVuSans-74" x="1233.105469"/>
      <use xlink:href="#DejaVuSans-4b" x="1272.314453"/>
      <use xlink:href="#DejaVuSans-66" x="1337.890625"/>
      <use xlink:href="#DejaVuSans-73" x="1373.095703"/>
      <use xlink:href="#DejaVuSans-56" x="1425.195312"/>
      <use xlink:href="#DejaVuSans-68" x="1493.603516"/>
      <use xlink:href="#DejaVuSans-2e" x="1556.982422"/>
      <use xlink:href="#DejaVuSans-79" x="1588.769531"/>
      <use xlink:href="#DejaVuSans-61" x="1647.949219"/>
      <use xlink:href="#DejaVuSans-6d" x="1709.228516"/>
      <use xlink:href="#DejaVuSans-6c" x="1806.640625"/>
     </g>
    </g>
   </g>
  </g>
 </g>
 <defs>
  <clipPath id="pb9b8c3b214">
   <rect x="57.6" y="41.472" width="357.12" height="266.112"/>
  </clipPath>
 </defs>
</svg>
